<svg width="30" height="30" viewBox="0 0 30 30" xmlns="http://www.w3.org/2000/svg">
    <path d="M1.454.56H13.02c1.177.116.893 2.159.893 3.486v6.32c0 1.373.262 3.057-.66 3.447-.6.254-2.211.076-2.988.076H4.132c-1.417 0-3.353.334-3.57-.88V1.44c.158-.43.437-.742.892-.88zm1.591 2.605V11.4h8.345V3.05H3.084c-.045.007-.042.06-.039.115zM16.98.561h11.567c.472.172.796.49.893 1.034v11.26c-.106.468-.354.868-.815.996-.755.21-2.009.038-2.912.038h-5.938c-.895 0-2.223.186-2.95-.038-1.026-.317-.737-2.294-.737-3.677V4.276c0-1.597-.355-3.492.892-3.715zm1.592 2.604V11.4h8.345V3.05H18.61c-.046.007-.043.06-.04.115zM6.849 5.578c1.162-.216 2.076.559 2.096 1.609.026 1.385-1.407 2.145-2.523 1.57C5.146 8.1 5.23 5.88 6.85 5.578zm15.526 0c2.737-.505 2.685 3.774 0 3.332-1.71-.28-1.764-3.007 0-3.332zm-9.432 23.861H1.493c-.475-.143-.797-.44-.932-.919V16.992c.113-.338.374-.731.777-.843.76-.21 2-.038 2.91-.038h5.94c.877 0 2.154-.194 2.949.038 1.075.313.776 2.258.776 3.639v6.09c0 1.49.325 3.428-.97 3.561zM3.045 18.715v8.235h8.345V18.6H3.084c-.045.007-.042.06-.039.115zm26.394-1.57v3.217c-.091 1.085-.013 2.336-.04 3.486h-8.266V21.97c-.777-.09-1.721-.013-2.562-.039-.09 2.426-.013 5.018-.039 7.507h-1.514c-1.301-.257-.931-2.184-.931-3.715v-5.936c0-.893-.183-2.231.039-2.95.264-.857 1.412-.727 2.561-.727h5.628v5.094h2.6c.026-1.685-.051-3.473.04-5.094 1.251-.073 2.41-.055 2.484 1.034zM7.043 21.09a1.707 1.707 0 0 1 1.786 2.336c-.668 1.795-3.858 1.12-3.26-1.149.164-.627.642-1.096 1.474-1.187zm16.884 8.35h-2.794c.025-.984-.052-2.069.038-2.988h2.756v2.987zm5.512-2.988v1.953c-.108.545-.431.878-.932 1.034h-1.98c.026-.983-.051-2.068.04-2.987h2.872z" fill="#000" fill-rule="nonzero"/>
</svg>
