<svg width="791" height="393" viewBox="0 0 791 393" xmlns="http://www.w3.org/2000/svg">
    <g fill="none" fill-rule="evenodd" stroke-linecap="round" stroke-linejoin="round">
        <path stroke="#F94E9B" stroke-width="3.138" d="m154.765 298.949 20.382 3.256M157.732 290.542l18.665 2.335M173.73 283.784l5.124.657M159.756 281.993l9.628 1.234M483.283 267.124l137.555-19.26 36.23-10.57 61.827-30.279-10.186-5.318-59.634 27.948-131.469 18.829M466.44 168.944l-9.171 33.198-61.487 59.004 55.546 11.268 53.799-27.24-36.484-31.764 8.968-39.907z"/>
        <path stroke="#E671FF" stroke-width="3.138" d="m456.039 221.95 23.288 19.875-33.174 16.483-21.064-6.548z"/>
        <path d="M454.856 233.98c-.338.592-8.97 17.286-8.97 17.286M440.652 246.125l22.034-5.845" stroke="#56FF97" stroke-width="3.138"/>
        <path stroke="#F94E9B" stroke-width="3.138" d="m291.357 133.82 12.845-12.67 11.398 41.227-19.523 18.473-5.022 4.75"/>
        <path stroke="#E671FF" stroke-width="3.138" d="m290.69 147.095 5.64-5.45 7.493 16.457-12.149 11.43"/>
        <path stroke="#F94E9B" stroke-width="3.138" d="m369.55 237.798-15.448 15.76-59.315-58.045 6.153-8.33M308.285 223.228l30.704 36.382-27.865-1.29z"/>
        <path stroke="#56FF97" stroke-width="3.138" d="m326.33 216.622 24.757 20.243"/>
        <path stroke="#00F1FF" stroke-width="3.138" d="m317.146 112.889 23.533 5.369 30.46 21.926 37.072 10.29 19.06 15.2-4.437 18.373-38.766 41.488-25.968-38.654 22.277-12.005-63.574-53.818z"/>
        <path stroke="#F94E9B" stroke-width="3.138" d="m336.066 126.052 51.426 43.657 28.457-.47-13.44-10.869-17.931-4.202M381.853 210.797l28.354-30.327-23.26-.307-14.403 10.025M388.209 189.49l-2.903 10.258M268.9 93.805l-24.484-8.748L216.8 113.51l24.666 24.902 26.177-24.162"/>
        <path stroke="#E671FF" stroke-width="3.138" d="m230.879 112.43 11.355 10.935 22.082-20.616-18.325-6.202z"/>
        <path stroke="#56FF97" stroke-width="3.138" d="m246.234 103.05-1.994 12.119M238.485 110.494l15.634-4.394M264.115 207.254l-22.596-24.093-7.433 10.8-32.214 52.165 81.602 7.32"/>
        <path stroke="#E671FF" stroke-width="3.138" d="m264.43 221.81-22.65-23.344-24.494 38.416 48.14 5.84"/>
        <path stroke="#F94E9B" stroke-width="3.138" d="m242.55 212.705 18.703 19.257-29.336-4.754zM144.332 145.962l-9.894 94.235 34.185 4.274 43.576-68.59 11.455-12.485-31.337-29.399-38.495 12.386z"/>
        <path stroke="#00F1FF" stroke-width="3.138" d="m154.6 156.5-9.498 73.017 60.998-66.45-18.145-19.236"/>
        <path stroke="#F94E9B" stroke-width="3.138" d="m196.24 186.155-39.54 44.347 8.133.495"/>
        <path stroke="#E671FF" stroke-width="3.138" d="m179.952 150.915 11.053 12.54L159.7 194.85l6.728-38.363z"/>
        <path stroke="#F94E9B" stroke-width="3.138" d="m390.332 45.213-22.965-17.675M483.86 93.953l-53.791-20.227M501.488 124.67l12.92 3.517 14.744-31.175M417.038 90.304l68.894 25.158"/>
        <path stroke="#56FF97" stroke-width="3.138" d="m488.243 166.626-5.339 43.638 31.542 23.933 138.775-20.991 53.408-27.661 15.798-31.707"/>
        <path stroke="#F94E9B" stroke-width="3.138" d="m674.716 138.312-48.248-1.624-58.35-15.061M495.741 169.504l-2.887 32.83 23.227 18.469 132.041-18.667 45.845-20.74 17.329-29.753"/>
        <path stroke="#F94E9B" stroke-width="3.138" d="m674.716 138.312-48.248-1.624-58.35-15.061M495.741 169.504l-2.887 32.83 23.227 18.469 132.041-18.667 45.845-20.74 17.329-29.753M276.183 79.367l-28.687-9.531"/>
        <path stroke="#56FF97" stroke-width="3.138" d="m399.705 39.52 20.039 4.067-12.188 24.462-14.386-9.483z"/>
        <path stroke="#E671FF" stroke-width="3.138" d="m357.046 42.568 15.085 11.473 12.242 27.603-5.164 26.023-7.589 2.93-12.608-7.046-.203-5.638 1.448-35.805"/>
        <path stroke="#00F1FF" stroke-width="3.138" d="m323.897 82.294 4.064 4.734 6.369 2.837 4.805.097 7.785-37.9L333 24.734l-15.263-8.014-18.2-.872"/>
        <path stroke="#F94E9B" stroke-width="3.138" d="m710.159 242.815-21.08 8.57M658.98 263.572l-25.778 10.354M380.13 271.966l66.24 11.476 115.675-12.83 101.093-25.22"/>
        <path stroke="#E671FF" stroke-width="3.138" d="m747.662 183.32 9.296 7.093-31.2 46.058-91.804 37.326-136.53 23.356-393.22-37.719-56.349-11.079-17.234-11.661-12.76-28.789 1.467-15.594 1.69-.325-.071 2.765 19.71 31.692 47.4 17.892M293.029 117.562l17.3-16.02"/>
        <path stroke="#F94E9B" stroke-width="3.138" d="m264.78 178.308-16.692-16.856 8.812-10.44M438.28 160.342l-6.198 25.128-79.869 81.141M716.997 224.8l-53.86 20.593-101.093 25.22-115.674 12.83-66.24-11.477-13.796-1.304M172.1 252.286l-49.067-4.641M36.581 269.996l-6.3-22.372"/>
        <path d="M518.675 186.154c1.499 1.183 3.721.971 4.961-.475a3.281 3.281 0 0 0-.469-4.754c-1.498-1.18-3.716-.968-4.955.473a3.282 3.282 0 0 0 .463 4.756z" stroke="#E671FF" stroke-width="3.138"/>
        <path d="M553.416 183.017c1.504 1.18 3.717.97 4.94-.473 1.223-1.44.996-3.563-.506-4.74-1.504-1.176-3.711-.966-4.936.471-1.225 1.439-1 3.562.502 4.742z" stroke="#F94E9B" stroke-width="3.138"/>
        <path d="M574.705 172.507c1.892.385 3.74-.771 4.126-2.58.385-1.81-.835-3.585-2.724-3.97-1.89-.384-3.735.769-4.124 2.576-.389 1.809.83 3.59 2.722 3.974zM580.664 157.36c1.923-.024 3.453-1.236 3.416-2.705-.035-1.468-1.62-2.639-3.542-2.615-1.921.024-3.451 1.233-3.418 2.702.034 1.47 1.62 2.642 3.544 2.618z" stroke="#E671FF" stroke-width="3.138"/>
        <path d="M580.568 144.368c1.916.084 3.516-1.103 3.573-2.65.057-1.544-1.448-2.864-3.361-2.948-1.914-.084-3.515 1.1-3.575 2.645-.06 1.547 1.446 2.87 3.363 2.953z" stroke="#56FF97" stroke-width="3.138"/>
        <path d="M575.294 129.62c.026 1.168 1.17 2.102 2.556 2.087 1.385-.017 2.484-.977 2.457-2.145-.027-1.166-1.172-2.1-2.556-2.083-1.383.015-2.483.973-2.457 2.14z" stroke="#00F1FF" stroke-width="3.138"/>
        <path d="M597.84 135.888c.188 1.094 1.553 1.809 3.049 1.597 1.496-.212 2.556-1.27 2.367-2.364-.188-1.092-1.552-1.805-3.048-1.595-1.494.212-2.555 1.27-2.367 2.362z" stroke="#F94E9B" stroke-width="3.138"/>
        <path d="M600.889 137.485c-.977.14-1.892-.123-2.466-.624.09-.945 1.066-1.784 2.38-1.97.979-.139 1.893.123 2.466.623-.089.943-1.064 1.784-2.38 1.97zM599.121 146.54c.151 1.286 1.818 2.182 3.723 2.004 1.904-.18 3.323-1.366 3.17-2.65-.153-1.283-1.819-2.178-3.722-2-1.901.178-3.322 1.362-3.17 2.647z" stroke="#F94E9B" stroke-width="3.138"/>
        <path d="M601.561 158.35c.305 1.365 2.076 2.178 3.956 1.818 1.877-.36 3.15-1.757 2.843-3.12-.306-1.362-2.075-2.175-3.951-1.817-1.876.36-3.151 1.755-2.848 3.119z" stroke="#00F1FF" stroke-width="3.138"/>
        <path d="M599.65 175.76c1.928.115 3.547-.935 3.617-2.345.071-1.41-1.43-2.645-3.356-2.76-1.925-.115-3.545.934-3.618 2.342-.074 1.41 1.429 2.648 3.357 2.763z" stroke="#F94E9B" stroke-width="3.138"/>
        <path d="M628.836 164.867c1.91.226 3.576-.68 3.72-2.021.143-1.342-1.287-2.613-3.194-2.838-1.909-.225-3.574.677-3.72 2.018-.146 1.343 1.284 2.616 3.194 2.84z" stroke="#E671FF" stroke-width="3.138"/>
        <path d="M631.61 150.012c1.913.026 3.454-1.021 3.443-2.338-.01-1.317-1.568-2.405-3.478-2.431-1.911-.027-3.453 1.018-3.445 2.334.008 1.318 1.567 2.408 3.48 2.435z" stroke="#56FF97" stroke-width="3.138"/>
        <path d="M655.125 166.346c.055-1.416 1.65-2.472 3.564-2.357.555.033 1.068.17 1.526.369.288.399.458.848.44 1.322-.052 1.417-1.648 2.474-3.563 2.358a4.52 4.52 0 0 1-1.527-.368c-.289-.4-.458-.85-.44-1.324zM487.287 103.657l5.805-12.58 9.246-5.623 7.88 11.72-7.643 16.74" stroke="#00F1FF" stroke-width="3.138"/>
        <path stroke="#E671FF" stroke-width="3.138" d="M32.754 195.534 21.23 183.813l.783-30.21 63.883-15.267"/>
        <path stroke="#F94E9B" stroke-width="3.138" d="m58.507 158.59-24.17 6.05.247 14.872z"/>
        <path stroke="#56FF97" stroke-width="3.138" d="m99.577 165.96-55.42 47.867 17.453 9.531z"/>
        <path stroke="#F94E9B" stroke-width="3.138" d="M98.162 196.669 81.204 223.87l9.61 2.167zM72.55 195.673l-14.129 17.245"/>
        <path stroke="#56FF97" stroke-width="3.138" d="m202.898 121.053 35.497 35.962-17.852 19.712-48.442 75.56"/>
        <path stroke="#E671FF" stroke-width="3.138" d="m265.042 194.5-24.608-24.9-11.234 12.68-43.88 68.45"/>
        <path stroke="#56FF97" stroke-width="3.138" d="m133.997 137.382-10.964 110.262M126.485 136.235l-1.337 6.22-15.304 104.39M124.438 135.923l-82.444 68.365"/>
        <path stroke="#F94E9B" stroke-width="3.138" d="m112.117 134.444-76.574 63.91"/>
        <path stroke="#56FF97" stroke-width="3.138" d="m451.18 159.745-6.292 30.597-78.554 80.32"/>
        <path stroke="#E671FF" stroke-width="3.138" d="m488.243 166.626-5.339 43.638 31.542 23.933 138.775-20.991 53.408-27.661M609.468 278.01l-8.703 1.49"/>
        <path stroke="#00F1FF" stroke-width="3.138" d="m390.964 69.89 12.956 8.31-10.878 23.135-3.871-21.094z"/>
        <path d="m40.174 102.933 12.806 13.619-29.679 1.922.152-7.85M23.85 90.111c.279-14.348.553-28.617.534-27.878-.038 1.468 8.534 8.453 8.534 8.453l2.995 18.89" stroke="#E671FF" stroke-width="3.138"/>
        <path stroke="#00F1FF" stroke-width="3.138" d="m168.665 60.798 14.986 2.607 48.768-8.516M46.854 82.83l-7.66-17.763-18.226-21.154 17.456-26.07L79.692 2.569l61.965 49.03M325.721 66.235 281.863 42.78l-18.982 4.885-72.79 77.543-46.898 12.965-52.285-6.274-33.48-24.543"/>
        <path stroke="#00F1FF" stroke-width="3.138" d="M68.141 73.102 52.638 42.468l15.3-16.071M332.508 52.47l-45.145-24.202-33.546 7.693-59.3 61.044-30.22 19.086-46.643 3.863-39.34-26.749"/>
        <path stroke="#E671FF" stroke-width="3.138" d="m150.882 69.403 31.996 3.29 33.286-6.58M80.698 69.662l-12.772-26.77L89.213 21.99l34.834 29.867"/>
        <path stroke="#56FF97" stroke-width="3.138" d="m131.787 71.919-28.64 16.256-18.579-43.348z"/>
        <path stroke="#00F1FF" stroke-width="3.138" d="M311.762 65.34v22.062M415.877 106.56l30.964 41.025-35.866-22.189zM460.775 141.006l17.416-2.322 42.962 32.9M388.01 110.817l8.128 13.159"/>
        <path stroke="#E671FF" stroke-width="3.138" d="m69.087 92.626.774 19.352 24.77-2.322-3.482 16.256 19.74-3.871"/>
        <path stroke="#00F1FF" stroke-width="3.138" d="m143.4 78.693 19.352 23.996-40.253 7.741 49.154-29.802z"/>
        <path stroke="#E671FF" stroke-width="3.138" d="m129.466 86.82-18.191 10.838M175.911 93.788l20.901-15.482"/>
        <path stroke="#F94E9B" stroke-width="3.138" d="m645.781 184.743 29.802-10.837"/>
        <path stroke="#00F1FF" stroke-width="3.138" d="m572.243 198.289-20.126 2.322"/>
        <path stroke="#EBBC7B" stroke-width="3.138" d="m523.697 131.542 14.745-31.175"/>
        <path stroke="#E671FF" stroke-width="3.138" d="m533.761 135.154 14.743-31.175"/>
        <path stroke="#56FF97" stroke-width="3.138" d="m544.597 137.993 14.744-31.176"/>
        <path stroke="#EBBC7B" stroke-width="3.138" d="m437.164 114.687 16.45 18.192 21.095-5.033z"/>
        <path stroke="#00F1FF" stroke-width="3.138" d="m157.667 20.325 40.04 7.815M155.232 37.306l31.097-25.931"/>
        <path stroke="#56FF97" stroke-width="3.138" d="m498.317 136.749 63.088 17.416-18.578 15.482z"/>
        <path stroke="#EBBC7B" stroke-width="3.138" d="m320.922 99.077 31.48 10.322 24.771 22.963 36.382 8.515 21.158 11.095"/>
        <path stroke="#00F1FF" stroke-width="3.138" d="m30.942 330.981 128.326 14.578 346.016 18.577 175.911-40.059 62.145-46.093 23.005-35.378 4.063-56.897-11.56-19.737"/>
        <path stroke="#E671FF" stroke-width="3.138" d="m189.844 299.5 220.981 23.653 1.376-13.976-217.867-22.07"/>
        <path stroke="#00F1FF" stroke-width="3.138" d="M4.313 231.38 3.28 278.859l8.515 41.543M40.058 302.598l378.916 40.252"/>
        <path stroke="#56FF97" stroke-width="3.138" d="m93.083 370.91 289.122 6.967"/>
        <path stroke="#00F1FF" stroke-width="3.138" d="m66.375 267.617-5.03 21.175 17.03 3.355 5.514-21.103z"/>
        <path stroke="#F94E9B" stroke-width="3.138" d="m103.539 270.19-4.258 23.996M90.96 280.059l22.642 2.71M121.725 284.149l19.352 2.579M453.808 291.76l-3.097 86.31"/>
        <path stroke="#00F1FF" stroke-width="3.138" d="m489.415 271.634.775 119.209"/>
        <path stroke="#F94E9B" stroke-width="3.138" d="m515.734 273.956 12.385 99.857M544.375 272.408l20.126 91.342"/>
        <path stroke="#00F1FF" stroke-width="3.138" d="m573.791 272.408 23.996 92.116"/>
        <path stroke="#E671FF" stroke-width="3.138" d="m595.465 244.54 37.931 109.147"/>
        <path stroke="#00F1FF" stroke-width="3.138" d="m632.622 265.44 38.703 91.343"/>
        <path d="M699.193 330.464c-1.548-2.322-44.898-89.794-44.898-89.794" stroke="#E671FF" stroke-width="3.138"/>
        <path stroke="#F94E9B" stroke-width="3.138" d="m685.259 240.67 44.897 67.346"/>
        <path stroke="#56FF97" stroke-width="3.138" d="m758.798 287.116-61.153-62.121"/>
        <path stroke="#F94E9B" stroke-width="3.138" d="m715.841 217.745 61.148 40.342"/>
        <path stroke="#E671FF" stroke-width="3.138" d="m788.992 233.614-60.771-33.97M219.259 35.344l-84.516 28.47"/>
        <path stroke="#56FF97" stroke-width="3.138" d="m34.253 341.495-12.386 43.349"/>
        <path stroke="#EBBC7B" stroke-width="3.138" d="m55.153 344.979-12.385 43.348M77.215 346.139l-12.385 43.35"/>
        <path d="M280.255 232.097s-11.03-22.874-11.66-54.897c-.622-31.544 1.295-60.72 7.261-95.675.464-3.599 1.593-8.567 2.636-12.738 1.027-4.108 5.909-6.444 9.937-4.76l8.356 3.492c2.948 1.232 3.269 8.36 2.404 11.35-4.245 14.684-14.867 52.772-13.682 64.057 1.454 13.847 5.723 64.673 11.917 84.41" stroke="#56FF97" stroke-width="3.138"/>
        <path stroke="#E671FF" stroke-width="3.138" d="m293.186 226.732 8.624 35.471-7.883 2.03-9.668-34.808z"/>
        <path stroke="#BBB8B4" stroke-width="2.219" d="m20.841 237.29-.516 44.317 23.545 4.064 7.935-33.285M432.654 291.864l-3.87 44.897"/>
        <path stroke="#56FF97" stroke-width="3.138" d="m683.33 131.628-10.064 35.995 44.51-24.9z"/>
        <path stroke="#F94E9B" stroke-width="3.138" d="m726.42 147.11 23.997 10.45-16.643 34.06zM300.94 187.184l51.726 45.333"/>
        <path stroke="#56FF97" stroke-width="3.138" d="m321.439 139.264 8.514 29.03-14.45 14.836 49.285 36.253-21.676-37.93 13.547-10.838z"/>
        <path d="M534.686 194.567c1.505 1.19 3.73.974 4.967-.48 1.236-1.452 1.017-3.592-.488-4.777-1.505-1.186-3.725-.971-4.962.478-1.24 1.45-1.022 3.591.483 4.78zM625.443 181.444c1.908.3 3.633-.638 3.851-2.096.219-1.455-1.149-2.878-3.055-3.177-1.906-.301-3.63.636-3.85 2.09-.222 1.457 1.146 2.883 3.054 3.183zM602.819 185.13l-10.063 14.32 34.834-5.805zM660.198 151.185c1.91.026 3.442-.928 3.424-2.13-.02-1.203-1.579-2.2-3.486-2.226-1.908-.027-3.44.926-3.424 2.129.015 1.203 1.576 2.201 3.486 2.227z" stroke="#F94E9B" stroke-width="3.138"/>
        <path d="M649.14 164.914c1.913.025 3.455-1.02 3.444-2.338-.01-1.316-1.568-2.405-3.478-2.431-1.91-.027-3.453 1.018-3.446 2.335.01 1.317 1.568 2.408 3.48 2.434zM573.792 191.265c1.511 1.184 3.722.97 4.938-.476 1.213-1.447.972-3.576-.539-4.757-1.509-1.18-3.716-.968-4.932.476-1.216 1.443-.978 3.574.533 4.757zM66.77 131.24l-8.901-6.966-56.256 5.674 16.97 15.806M588.504 292.38l16.127-3.741M591.085 300.895l16.126-3.741M593.793 309.152l16.127-3.741M596.373 317.666l16.128-3.741" stroke="#56FF97" stroke-width="3.138"/>
    </g>
</svg>
