<svg width="265" height="30" viewBox="0 0 265 30" xmlns="http://www.w3.org/2000/svg">
    <path d="M0 1.236h3.712V28.53H0v.928h11.572v-.928H8.461V14.338h2.566c1.31 0 1.583 2.456 1.528 3.821h.982V9.206h-.982c.055 1.474-.273 4.313-1.528 4.313H8.515V1.126c1.582.055 4.094.164 5.24 1.42 1.474 1.529 1.42 3.713 1.583 5.732h.71V.362H0v.874zm24.4 0h2.566V.308H16.813v.928h2.838V28.53h-3.275v.928h10.808v-.928h-2.729l-.054-27.295v.001zm22.327 0V.308h-6.004v.928h2.456v20.089L35.209.362h-6.987v.928h2.511v27.296H28.17v.873h6.494v-.929h-2.62V5.986l8.626 23.582h3.712V1.345h2.347v-.109zM57.263.362h-4.531l-4.86 28.224h-2.51v.873h6.605v-.929h-2.784l1.528-9.116h5.24l1.857 9.116h-2.62v.928h9.117v-.928h-1.31L57.263.362zm-6.387 18.015L52.95 5.44l2.73 12.937h-4.804zM83.465 1.236V.308h-5.841v.928h2.184V20.67L72 .307h-6.878v.929h2.456V28.53h-2.564v.928h6.277v-.928H68.78V5.439l9.171 24.129h3.112V1.345h2.456v-.109h-.055zm11.026 27.24c-.983.492-2.784.328-3.493-.436-1.474-1.747-2.457-4.75-2.675-7.097-.491-5.46-.546-8.08.164-12.392.327-2.511 1.037-4.968 2.729-6.715 1.092-.983 2.948-.764 4.094-.163 2.293 1.528 2.183 4.312 2.347 6.823h.928V.417h-.764c0 .437 0 .819-.328 1.092-.818.218-1.2-.765-1.855-.928-1.693-.983-4.095-.6-5.733.273-3.766 2.237-6.222 6.332-6.55 10.59-.6 6.605.328 13.539 5.841 17.414 1.747.82 4.258 1.802 6.005.437.764-.218 1.201-1.31 1.965-1.419.546.328.492.982.546 1.582h.764v-7.205H97.44c-.164 2.183.164 4.15-2.948 6.224v-.001zm15.995-27.24V.308h-10.044v.928h2.456V28.53h-2.566v.928h10.044v-.928h-2.347V1.236h2.457zm12.336-.874h-4.367l-4.804 28.224h-2.292v.873h6.059v-.929h-2.565l1.474-8.898h5.621l1.747 8.898h-2.729v.928h9.553v-.928h-1.692L122.822.362zm-3.548 18.124h-2.784l2.238-13.866 3.002 13.866h-2.456zm27.13 3.658h-.928c0 1.255 0 2.62-.273 3.821-.436 1.092-1.31 2.348-2.566 2.566h-3.712V1.236h3.057V.308h-10.371v.928h2.566V28.53h-2.675v.928h14.902c0-2.347-.109-4.913 0-7.315zm25.765-4.586c-1.091-2.074-3.33-3.057-5.513-3.275 2.456-.273 5.022-1.255 6.223-3.821.819-1.965.982-5.132-.273-7.043-1.256-1.91-3.111-3.002-5.295-3.057h-11.463v.928h2.784v27.296h-2.948v.873h10.371v-.929h-2.565V14.61h.6c1.201.054 2.839.545 3.33 1.474 1.42 2.238 2.566 10.263 2.839 11.791.055.6 0 1.201.327 1.692h6.224v-.927s-1.038.054-1.365-.219c-1.256-3.712-1.584-7.37-3.276-10.863zm-8.734-3.876V1.236c.82 0 2.73 0 3.276.327 2.02 2.075 1.855 5.787 1.746 8.625-.218 1.256-.6 2.73-1.856 3.276-.71.328-3.166.218-3.166.218zm27.403 12.447c-1.037 2.348-4.694 2.511-6.387 2.511V14.61s2.457 0 3.112.328c.983.71 1.256 2.074 1.419 3.494h.71V9.588h-.764c-.055 1.31-.218 2.948-1.42 3.767-.71.492-3.057.272-3.057.272V1.345c.984 0 3.003-.164 3.876.218 2.184 1.037 2.293 3.603 2.457 5.842h.764V.362H177.41v.928h2.238v27.405h-2.02v.928h14.575v-7.698h-.764c-.218 1.529-.273 2.894-.6 4.204zm14.466-24.893h2.457l-4.313 25.493c-.055 0-4.367-25.493-4.367-25.493h2.566V.308h-9.062v.928h1.42l5.349 28.223h4.695l5.022-28.223h1.419V.308h-5.022v.928h-.164zm12.719 0h2.73V.308h-9.608v.928h2.347V28.53h-2.838v.928h10.317v-.928h-2.894l-.054-27.295v.001zm4.422 0h2.839V28.53h-2.73v.928h14.356v-7.696h-.71s-.218 3.057-.6 4.367c-.437.983-1.528 1.965-2.565 2.238-.929.164-2.839.164-2.839.164V14.228s2.238-.054 2.839.273c.982.764 1.037 2.238 1.255 3.767h.71V9.752h-.764c0 1.037-.437 2.457-1.256 3.111-.764.765-2.839.438-2.839.438V1.29s2.73-.054 3.603.055c2.075 1.037 2.238 3.44 2.511 5.514h.71V.253H222.39l.055.983zm35.591-.874v.928h2.73L257.49 22.8 253.723.362h-2.729l-3.275 22.983-3.057-22.164h3.057V.254h-9.826v.927h2.074l4.313 28.278h3.548l3.002-17.906 3.275 17.906h3.494l4.367-28.223h2.784V.308h-6.714v.054z" fill="#AAA" fill-rule="nonzero"/>
</svg>
