<svg width="208" height="30" viewBox="0 0 208 30" xmlns="http://www.w3.org/2000/svg">
    <path d="M29.893 29.09h19.92v-5.245H35.93v-6.434h11.502v-5.244H35.93V6.218H49.9V.974H29.893v28.117-.002zm43.894-10.4L60.743.974h-8.991l2.82 3.57V29.18h5.994V10.713L74.05 29.091h5.774V.974h-6.038V18.69zm-52.972-4.054c2.643-.486 4.848-2.954 4.848-6.436 0-3.745-2.733-7.226-8.154-7.226H.058L2.79 4.455v24.68h15.336c5.42 0 8.243-3.394 8.243-7.624-.133-3.483-2.513-6.48-5.554-6.875zM8.784 6.262h7.536c2.027 0 3.305 1.19 3.305 2.952 0 1.763-1.278 2.953-3.305 2.953H8.784V6.262zm7.8 17.63h-7.8v-6.48h7.8c2.292 0 3.57 1.454 3.57 3.218 0 2.026-1.366 3.216-3.57 3.26v.001zm151.29-5.202h3.13v3.305a9.47 9.47 0 0 1-5.773 2.115c-5.024 0-8.55-3.834-8.55-8.99 0-5.156 3.57-8.99 8.55-8.99 2.599 0 5.023 1.366 6.434 3.57l4.76-2.644C174.398 3.84 170.828.974 165.187.974c-7.977 0-14.588 5.51-14.588 14.058 0 8.55 6.523 14.06 14.588 14.06 4.406.087 8.594-1.808 11.502-5.07v-10.4H163.82l4.054 5.068h-.001zm-27.102 0L127.682.974h-8.944l2.776 3.57V29.18h6.037V10.713l13.486 18.378h5.729V.974h-5.994V18.69zM196.608.974h-11.59l2.776 3.57-.484 1.366-8.99 23.268h6.787l1.762-4.759h12.12l1.762 4.76h6.787L196.608.974zm-8.195 18.157 4.406-12.12 4.406 12.12h-8.812zm-79.194 10.092h6.037V.974h-6.037v28.25zm-4.805-23.402V.974H83.217V6.22h13.31l-13.31 18.068v4.803h21.418v-5.244H91.018l13.396-18.025z" fill="#AAA" fill-rule="evenodd"/>
</svg>
