<svg width="206" height="42" viewBox="0 0 206 42" xmlns="http://www.w3.org/2000/svg">
    <g fill="#AAA" fill-rule="evenodd">
        <path d="m12.584 17.286 7.99-7.986 7.994 7.993 4.646-4.65L20.574 0 7.933 12.64zM0 20.57l4.648-4.648 4.648 4.649-4.648 4.647zM12.584 23.853l7.99 7.99 7.994-7.993 4.65 4.644-.004.003-12.64 12.643-12.64-12.637-.008-.006zM31.843 20.572l4.65-4.649 4.647 4.649-4.648 4.648z"/>
        <path d="m25.289 20.568-4.716-4.718-3.486 3.487-.403.4-.825.824-.007.007.007.01 4.714 4.712 4.716-4.718.004-.004zM58.768 27.577a4.618 4.618 0 0 0 2.502-.574c.605-.39.952-1.077.904-1.794v-.062a2.053 2.053 0 0 0-.841-1.729c-.56-.433-1.463-.65-2.711-.65h-5.554v4.81h5.7zm-1.276-8.79a4.994 4.994 0 0 0 2.524-.546c.62-.362.98-1.044.93-1.76v-.062a1.928 1.928 0 0 0-.81-1.667c-.54-.384-1.318-.575-2.337-.575h-4.73v4.61h4.423zM48.393 9.97h10.111c2.51 0 4.407.649 5.693 1.948.98.971 1.52 2.3 1.493 3.68v.06c.007.56-.07 1.117-.232 1.652-.144.46-.352.898-.62 1.3-.248.379-.55.72-.896 1.014-.339.29-.707.54-1.102.747a7.372 7.372 0 0 1 2.98 1.949c.723.824 1.084 1.96 1.084 3.413v.062a5.65 5.65 0 0 1-.574 2.619 5.114 5.114 0 0 1-1.648 1.872 7.772 7.772 0 0 1-2.584 1.12c-1.095.26-2.217.386-3.343.374H48.393V9.969zM72.93 31.787h4.799V9.969h-4.8zM84.991 9.969h4.426l10.23 13.425V9.97h4.736v21.817H100.3l-10.565-13.87v13.87h-4.744zM123.966 22.654l-2.906-7.076-2.892 7.076h5.798zm-5.05-12.84h4.42l9.348 21.971h-5.01l-1.996-4.893h-9.226l-1.995 4.893h-4.894l9.353-21.972zM137.873 9.969h4.426l10.223 13.425V9.97h4.737v21.817h-4.084l-10.564-13.87v13.87h-4.738zM174.533 32.169a11.346 11.346 0 0 1-4.458-.871 10.767 10.767 0 0 1-5.89-5.954 11.522 11.522 0 0 1-.842-4.396v-.06a11.315 11.315 0 0 1 3.18-7.966 10.802 10.802 0 0 1 3.575-2.43c1.46-.605 3.03-.907 4.61-.888a14.49 14.49 0 0 1 2.79.25c.785.15 1.554.38 2.294.687.67.282 1.308.637 1.9 1.059.579.411 1.121.87 1.624 1.371l-3.05 3.522a11.606 11.606 0 0 0-2.6-1.81 6.625 6.625 0 0 0-2.977-.649 6.038 6.038 0 0 0-4.549 1.995 6.842 6.842 0 0 0-1.313 2.167 7.455 7.455 0 0 0-.464 2.635v.063c-.004.897.153 1.789.464 2.631.295.8.736 1.54 1.3 2.18a6.004 6.004 0 0 0 4.549 2.029 6.66 6.66 0 0 0 3.162-.687 12.236 12.236 0 0 0 2.57-1.87l3.054 3.086a15.535 15.535 0 0 1-1.744 1.626c-.611.482-1.275.896-1.978 1.23-.75.354-1.54.614-2.353.776-.939.19-1.895.281-2.854.274M189.127 9.969h16.42v4.27H193.85v4.425h10.3v4.27h-10.285v4.581h11.844v4.271h-16.57z"/>
    </g>
</svg>
