<svg width="240" height="30" viewBox="0 0 240 30" xmlns="http://www.w3.org/2000/svg">
    <g fill="#AAA" fill-rule="nonzero">
        <path d="M9.9 6.3H0V.9h26.52v5.4h-9.84v22.62H9.9zM29.04.9h6.78v10.56h12.9V.9h6.78v28.08h-6.72V16.86h-12.9v12.06h-6.84zM81.36 17.1H65.7v6.36h16.86v5.46H58.92V.9h23.64v5.46H65.7v5.34h15.66zM96.18.9h15.54c6.72 0 9.66 3.24 9.66 7.2 0 3.24-2.04 5.16-4.2 6 2.7.84 5.22 2.94 5.22 6.48 0 5.28-4.02 8.34-10.92 8.34h-15.3V.9zm14.1 10.98c3.06 0 4.02-1.2 4.02-2.88 0-2.1-1.62-3-3.96-3h-7.44v5.88h7.38zm-7.38 12h7.68c2.64 0 4.62-.78 4.62-3.54 0-2.22-1.5-3.42-4.5-3.42h-7.8v6.96zM125.34.9h6.78v22.62H147v5.46h-21.6V.9zM177.96 14.82c0 7.8-5.16 14.7-15.42 14.7-9.54 0-14.94-6.48-14.94-14.7 0-7.74 5.76-14.58 15.24-14.58 9.84.06 15.12 6.96 15.12 14.58zm-23.16-.06c0 5.28 2.7 9.48 8.16 9.48 5.64 0 7.8-4.74 7.8-9.3 0-4.98-2.4-9.3-8.1-9.3-5.46 0-7.86 4.38-7.86 9.12zM208.5 20.04c-1.32 4.92-5.22 9.48-14.04 9.48-10.02 0-14.88-6.96-14.88-14.58S184.92.3 194.82.3c8.58 0 12.9 4.8 13.68 9.48h-6.9c-.6-1.62-2.1-4.2-6.9-4.2-5.22 0-7.98 4.02-7.98 9.12 0 5.16 2.52 9.6 8.04 9.6 4.02 0 5.76-1.56 6.84-4.26h6.9zM210.84.9h6.78v12.24c4.02-3.72 7.92-7.32 13.26-12.24h8.34l-13.2 12.06L240 28.98h-8.46l-10.32-12.24-3.54 3v9.24h-6.78V.9h-.06z"/>
    </g>
</svg>
