<svg width="196" height="37" viewBox="0 0 196 37" xmlns="http://www.w3.org/2000/svg">
    <g fill="#AAA" fill-rule="nonzero">
        <path d="M54.646 26.17c-3.603 0-5.835-3.234-5.835-7.708 0-4.43 1.879-7.73 5.813-7.73 2.586 0 4.288 1.662 4.598 3.854h6.012c-.31-2.724-1.525-5.116-3.647-6.71-1.724-1.33-4.112-2.149-6.941-2.149-7.25 0-11.958 5.493-11.958 12.735 0 7.287 4.863 12.624 12.002 12.624 3.426 0 5.924-.952 7.78-2.768 1.658-1.595 2.764-3.81 2.918-6.224h-6.012c-.265 2.37-2.033 4.076-4.73 4.076zM76.485 12.66c-5.57 0-9.306 3.986-9.306 9.235 0 5.25 3.736 9.236 9.306 9.236 5.614 0 9.283-3.987 9.283-9.236 0-5.249-3.669-9.236-9.283-9.236zm-.022 14.506c-2.41 0-3.67-2.104-3.67-5.27 0-3.168 1.26-5.316 3.67-5.316s3.713 2.148 3.713 5.315c-.022 3.167-1.304 5.271-3.713 5.271zM93.633 10.806a3.039 3.039 0 0 0 0-4.291 3.024 3.024 0 0 0-4.282 0 3.039 3.039 0 0 0 0 4.29 3.024 3.024 0 0 0 4.282 0zM86.675 17.045h2.32v13.532h5.527V13.125h-7.847zM108.115 12.615c-2.408 0-4.089 1.019-5.37 2.902h-.11v-2.392h-5.328v17.43h5.548V20.92c0-2.149 1.216-3.677 3.05-3.677 1.813 0 2.72 1.262 2.72 3.1v10.21h5.547V19.216c0-3.876-2.254-6.6-6.057-6.6zM127.169 6.214h-10.366v24.34h9.99c3.05 0 5.504-.774 7.406-2.214 2.718-2.082 4.221-5.515 4.221-9.811 0-7.442-4.531-12.315-11.251-12.315zm-.817 19.291h-3.537v-14.24h3.603c3.78 0 5.924 2.856 5.924 7.286-.023 4.451-2.056 6.954-5.99 6.954zM154.843 14.918c-1.503-1.35-3.47-2.17-5.946-2.17-5.305 0-8.93 3.987-8.93 9.191 0 5.272 3.537 9.258 9.284 9.258 2.21 0 3.978-.576 5.438-1.594 1.525-1.064 2.541-2.548 2.917-4.12h-5.393c-.486 1.085-1.437 1.728-2.896 1.728-2.277 0-3.559-1.462-3.912-3.81h12.51c.023-3.566-.994-6.578-3.072-8.483zm-9.416 5.161c.376-2.082 1.459-3.41 3.559-3.41 1.79 0 3.094 1.328 3.293 3.41h-6.852zM168.835 19.658c-2.21-.398-4.178-.576-4.178-1.794 0-1.085 1.061-1.594 2.41-1.594 1.525 0 2.586.487 2.785 2.037h5.106c-.266-3.433-2.918-5.581-7.847-5.581-4.112 0-7.516 1.905-7.516 5.581 0 4.097 3.228 4.895 6.256 5.404 2.32.399 4.42.576 4.42 2.149 0 1.13-1.06 1.727-2.718 1.727-1.835 0-2.984-.842-3.205-2.591h-5.239c.177 3.854 3.36 6.201 8.466 6.201 4.553 0 7.913-1.97 7.913-5.78.022-4.452-3.58-5.25-6.653-5.759zM188.53 19.68l6.123-6.555h-6.389l-5.172 5.89v-12.8h-5.46v24.362h5.46v-5.36l1.68-1.772 4.178 7.132h6.41zM18.33 20.08c.927 0 1.68-.755 1.68-1.684 0-.93-.753-1.683-1.68-1.683-.928 0-1.68.753-1.68 1.683s.752 1.683 1.68 1.683zM31.725 20.08c.927 0 1.68-.755 1.68-1.684 0-.93-.753-1.683-1.68-1.683-.928 0-1.68.753-1.68 1.683s.752 1.683 1.68 1.683zM31.725 33.523c.927 0 1.68-.754 1.68-1.684 0-.93-.753-1.683-1.68-1.683-.928 0-1.68.754-1.68 1.683 0 .93.752 1.684 1.68 1.684z"/>
        <path d="M36.654 4.642C36.477 2.184 34.51.19 32.056.013a5.022 5.022 0 0 0-3.979 1.506c-.751.775-1.768 1.24-2.851 1.24h-.398c-1.105 0-2.144-.465-2.918-1.262A4.934 4.934 0 0 0 18.352.013a5.024 5.024 0 0 0-3.56 1.484c-.773.797-1.812 1.262-2.917 1.262h-.376a3.988 3.988 0 0 1-2.873-1.196 8.565 8.565 0 0 0-.464-.442C6.282-.408 3.52-.363 1.707 1.253a5.038 5.038 0 0 0-.243 7.331l.066.067c.796.753 1.216 1.816 1.216 2.901v.377c0 1.107-.464 2.148-1.26 2.923a4.953 4.953 0 0 0-1.48 3.566c0 1.395.574 2.658 1.48 3.566.796.775 1.26 1.816 1.26 2.923v.51c0 1.085-.464 2.104-1.238 2.857A4.98 4.98 0 0 0 .005 32.06c.11 2.613 2.233 4.717 4.819 4.806a5.01 5.01 0 0 0 3.802-1.55c.751-.775 1.768-1.263 2.851-1.263h.42c1.083 0 2.1.465 2.852 1.263a5.011 5.011 0 0 0 4 1.528c2.454-.177 4.443-2.17 4.62-4.651a5.008 5.008 0 0 0-8.532-3.92c-.774.775-1.813 1.24-2.896 1.24h-.464a4.058 4.058 0 0 1-2.918-1.218l-.044-.044c-.796-.776-1.26-1.817-1.26-2.924v-.443c0-1.107.464-2.148 1.26-2.923a4.953 4.953 0 0 0 1.481-3.566 5.044 5.044 0 0 0-1.48-3.566c-.797-.775-1.26-1.816-1.26-2.923v-.4c0-1.107.463-2.148 1.237-2.923l.044-.044.045-.044c.773-.775 1.812-1.24 2.917-1.24h.398c1.105 0 2.144.465 2.918 1.262a4.934 4.934 0 0 0 3.559 1.484 5.024 5.024 0 0 0 3.558-1.484c.774-.797 1.813-1.263 2.918-1.263h.354c1.105 0 2.144.466 2.917 1.263a4.934 4.934 0 0 0 3.56 1.484c2.873.022 5.171-2.414 4.973-5.36z"/>
    </g>
</svg>
