<svg width="137" height="37" viewBox="0 0 137 37" xmlns="http://www.w3.org/2000/svg">
    <path d="M77.885 34.148c0-.341-.262-11.81-.21-16.392v-3.587l.76-.183a5.477 5.477 0 0 1 1.545 0 2.616 2.616 0 0 1 1.624.366 7.861 7.861 0 0 1 3.378 5.97c.19 1.907.19 3.828 0 5.734a12.607 12.607 0 0 1-3.038 7.516 3.645 3.645 0 0 1-1.86.942 4.655 4.655 0 0 1-1.596 0c-.498 0-.498-.157-.498-.366h-.105zm6.86-23.121a8.63 8.63 0 0 0-2.225 0 9.905 9.905 0 0 0-4.112.89l-.811.34V6.576a39.008 39.008 0 0 0 0-5.761c-.314 0-10.316 1.91-10.474 1.99a.813.813 0 0 0 0 .602c0 .55 0 .524 1.179.786.33.074.648.197.942.366a3.22 3.22 0 0 1 .969 1.807c.298 1.993.395 4.01.288 6.022v22.99l.707.158c1.047.235 4.006.732 4.975.838 1.934.153 3.879.153 5.813 0a11.864 11.864 0 0 0 9.793-7.36 18.01 18.01 0 0 0 .995-3.978 23.6 23.6 0 0 0-.183-5.526 10.08 10.08 0 0 0-7.856-8.483zM37.614 34.592c-2.62.786-4.583-1.754-5.238-7.095a49.16 49.16 0 0 1 0-8.406c.525-4.294 1.86-6.467 3.928-6.467a2.62 2.62 0 0 1 2.2.968c1.754 1.755 2.618 5.238 2.618 10.475a19.41 19.41 0 0 1-1.361 8.693 3.978 3.978 0 0 1-2.147 1.7v.132zM48.506 21.5a11.754 11.754 0 0 0-5.393-9.322 13.613 13.613 0 0 0-12.255-.341 11.837 11.837 0 0 0-5.735 6.808 17.514 17.514 0 0 0 0 10.056 10.988 10.988 0 0 0 2.802 4.739 10.646 10.646 0 0 0 6.049 2.933c1.464.122 2.935.122 4.399 0a14.044 14.044 0 0 0 1.597-.341 11.651 11.651 0 0 0 8.353-9.295 22.89 22.89 0 0 0 .183-5.237zm17.649-10.998a5.504 5.504 0 0 0-2.62.55 8.77 8.77 0 0 0-4.057 4.059l-.341.628v-5.237h-.131c-.314 0-10.002 1.938-10.316 2.069-.315.13-.21.157-.21.628 0 .47 0 .55.21.576l1.02.21c.58.014 1.12.294 1.467.759.654.864.785 2.382.785 8.85a50.53 50.53 0 0 1-.366 8.72 2.148 2.148 0 0 1-1.807 1.702l-.89.183h-.34v.733a1.049 1.049 0 0 0 0 .76h14.637v-.76c.05-.251.05-.51 0-.76a14.627 14.627 0 0 1-2.62-.34 2.618 2.618 0 0 1-1.386-2.618c-.21-1.52-.315-5.97-.262-9.374.052-3.404 0-3.614.288-3.85a4.71 4.71 0 0 1 3.064-.968c1.04.022 2.06.282 2.984.76.32.178.665.309 1.02.392 0 0 2.62-6.337 2.62-6.625a3.091 3.091 0 0 0-2.75-1.047zm37.653 9.924h-1.833v-1.545c.602-3.954 2.095-6.31 3.928-6.31 1.833 0 2.618 2.33 2.959 6.598v1.205h-1.572l-3.482.052zm7.306-9.06a12.078 12.078 0 0 0-9.873.236 11.495 11.495 0 0 0-5.996 7.149 14.01 14.01 0 0 0-.707 5.236c-.018.966.06 1.93.237 2.88a11.625 11.625 0 0 0 9.399 9.375 18.4 18.4 0 0 0 4.583 0 12.608 12.608 0 0 0 4.45-1.702 7.881 7.881 0 0 0 2.777-2.62 1.31 1.31 0 0 0-.63-.811c-.298.108-.58.259-.837.445a7.482 7.482 0 0 1-4.4 1.23 6.994 6.994 0 0 1-5.576-2.2 6.266 6.266 0 0 1-1.336-1.78 12.19 12.19 0 0 1-1.283-5.236v-1.021h14.507v-.524c.032-.523.032-1.048 0-1.571a10.476 10.476 0 0 0-5.315-9.086zm24.666 13.538a9.508 9.508 0 0 0-5.421-4.111 13.107 13.107 0 0 1-4.687-2.62 2.619 2.619 0 0 1-.76-2.33 3.116 3.116 0 0 1 .917-2.2 3.168 3.168 0 0 1 3.142-.863 6.6 6.6 0 0 1 4.635 4.923c.419 1.178.47 1.178 1.23.864l.472-.184v-6.52l-.341-.156a20.218 20.218 0 0 0-8.038-1.1 9.427 9.427 0 0 0-6.284 2.618 7.226 7.226 0 0 0-2.28 5.656 6.208 6.208 0 0 0 1.782 4.294 10.619 10.619 0 0 0 4.45 2.618c4.059 1.598 5.238 2.62 5.238 4.478a3.458 3.458 0 0 1-2.618 3.43c-.914.2-1.861.2-2.775 0a8.066 8.066 0 0 1-4.897-5.525l-.341-.838h-.471a2.114 2.114 0 0 0-.655.158h-.261v7.436h.445c1.769.589 3.594.992 5.446 1.204h2.618a10.254 10.254 0 0 0 3.378-.313 8.147 8.147 0 0 0 6.18-5.238 6.05 6.05 0 0 0 .47-2.356 6.524 6.524 0 0 0-.574-3.325zM13.236 4.14h2.985a10.067 10.067 0 0 1 5.368.68 9.507 9.507 0 0 1 4.294 5.735c.445 1.257.445 1.257 1.519.812h.837v-9.95H.144v1.754h1.152A3.354 3.354 0 0 1 3.914 4.4C4.988 6.13 5.17 8.069 5.17 18.15c0 10.709-.235 13.328-1.257 14.663a2.827 2.827 0 0 1-2.174 1.152c-1.596.288-1.596.262-1.596.969a1.042 1.042 0 0 0 0 .734H17.87a1.646 1.646 0 0 0 0-1.494 8.971 8.971 0 0 0-1.31-.261 8.829 8.829 0 0 1-1.412-.288 4.71 4.71 0 0 1-1.912-4.268c-.262-1.73-.393-4.896-.393-7.515v-2.07h1.048c1.305-.04 2.608.103 3.875.42a4.846 4.846 0 0 1 2.252 3.457l.235.812h1.598v-11.6h-1.467l-.235 1.126a4.662 4.662 0 0 1-2.383 3.456 4.366 4.366 0 0 1-1.911.13h-3.012v-2.827c0-2.933.157-9.113.262-10.081l.13-.524z" fill="#AAA" fill-rule="evenodd"/>
</svg>
