<?xml version="1.0" encoding="UTF-8"?>
<svg width="213px" height="32px" viewBox="0 0 213 32" version="1.1" xmlns="http://www.w3.org/2000/svg" xmlns:xlink="http://www.w3.org/1999/xlink">
    <title>编组</title>
    <g id="网站" stroke="none" stroke-width="1" fill="none" fill-rule="evenodd">
        <g id="新版官网-6" transform="translate(-867.000000, -969.000000)" fill="#AAAAAA">
            <g id="编组" transform="translate(867.000000, 969.000000)">
                <path d="M0,0.505368678 L5.27955182,0.505368678 L5.27955182,31.4953227 L0,31.4953227 L0,0.505368678 Z M42.7748763,20.32467 L21.3269563,0.0276535528 L21.3269563,31.4946313 L26.4032889,31.4946313 L26.4032889,11.3338086 L47.8512089,31.9737291 L47.8512089,0.505368678 L42.7748763,0.505368678 L42.7748763,20.32467 Z M75.4039996,14.2332836 L70.3795086,12.4157539 C67.7901919,11.5087174 66.3171983,10.5989155 66.3171983,8.32855877 C66.3171983,5.80517208 68.6535279,4.59325513 71.7999693,4.59325513 C75.4544588,4.59325513 78.2981451,5.95588394 80.8860794,7.9248169 L80.8860794,2.5233867 C78.3997547,0.909110549 75.2014716,0 71.6983597,0 C65.9619103,0 61.1904065,2.9775963 61.1904065,8.4288029 C61.1904065,13.526044 64.3375392,15.7473157 68.5000766,17.2613477 L73.0179021,18.8770065 C75.8097468,19.9368289 77.3836587,20.8964072 77.3836587,23.3181671 C77.3836587,26.0938925 74.8959516,27.3562771 71.3423805,27.3562771 C67.6885823,27.3562771 64.2863888,26.0448074 61.4433937,23.7723767 L61.4433937,29.274051 C63.6269632,30.7887744 67.1798431,32 71.3423805,32 C77.6891788,32 82.5104505,28.8696178 82.5104505,23.2172316 C82.5104505,18.7256033 80.2778043,15.9996543 75.4039996,14.2332836 Z M94.4043034,0.505368678 L99.683164,0.505368678 L99.683164,31.4953227 L94.4043034,31.4953227 L94.4043034,0.505368678 Z M127.948604,0.506060017 L115.993233,0.506060017 L115.993233,31.4953227 L127.948604,31.4953227 C137.137015,31.4953227 143.076684,25.4385033 143.076684,15.9996543 C143.076684,6.56218809 137.136324,0.506060017 127.948604,0.506060017 Z M127.745385,26.8025147 L121.273476,26.8025147 L121.273476,5.14909154 L127.745385,5.14909154 C134.291946,5.14909154 137.79575,9.33791345 137.79575,15.9996543 C137.79575,22.6109275 134.292638,26.8025147 127.745385,26.8025147 Z M155.058322,31.4953227 L173.966002,31.4953227 L173.966002,26.8025147 L160.235573,26.8025147 L160.235573,17.1984358 L172.544159,17.1984358 L172.544159,12.6051807 L160.235573,12.6051807 L160.235573,5.1484002 L173.966002,5.1484002 L173.966002,0.505368678 L155.058322,0.505368678 L155.058322,31.4953227 Z M201.365341,18.7256033 C206.289605,17.9685873 208.611419,14.9902997 208.611419,9.79143172 C208.611419,3.73530365 204.449573,0.505368678 198.001856,0.505368678 L186.694851,0.505368678 L186.694851,31.4953227 L191.973711,31.4953227 L191.973711,18.9274742 L195.730502,18.9274742 L206.581301,31.4953227 L212.571429,31.4953227 L201.365341,18.7256033 Z M191.974402,14.53609 L191.974402,5.04746473 L197.900247,5.04746473 C201.402667,5.04746473 203.383018,6.91477089 203.383018,9.79143172 C203.383018,12.6687839 201.402667,14.53609 197.900247,14.53609 L191.974402,14.53609 L191.974402,14.53609 Z" id="形状"></path>
            </g>
        </g>
    </g>
</svg>