<svg xmlns="http://www.w3.org/2000/svg" viewBox="0 0 145.92 42.93"><defs><style>.cls-1{fill:#aaa;}</style></defs><g id="图层_2" data-name="图层 2"><g id="图层_1-2" data-name="图层 1"><path class="cls-1" d="M135.07.52a13.86,13.86,0,0,0-9,2.83,15.27,15.27,0,0,0-4,4.46l1.16-6H109.31l-6.67,39.44h14.7l4-23.35c.78-4.22,2.69-6.39,5.75-6.26,2.31,0,3.43,1.13,3.57,3.3l-4.32,26.31h15l4.22-25.66.37-5a10.26,10.26,0,0,0-3.06-7.28A10.5,10.5,0,0,0,135.07.52Z"/><path class="cls-1" d="M103.15,29a10.86,10.86,0,0,0-5.34-10.48,31.86,31.86,0,0,0-10-3.44c-4.6-.89-6.88-2-6.88-3.44,0-1.94,1.77-2.82,5.34-2.55a7,7,0,0,1,6.54,4.32l11.6-2.69C101.89,4,96.28.39,87.46,0,81.71-.12,77.12.8,73.54,3c-4.46,2.42-6.63,6.13-6.77,11.34-.14,6,4.73,10.24,14.8,12.66,4.87,1.26,7.29,2.55,7.29,4,0,1.9-1.91,2.68-5.62,2.55-3.95,0-6.63-1.64-8-5l-12,2.69C66,39,72.66,42.93,83.11,42.93a25.57,25.57,0,0,0,13.3-3.2A12.54,12.54,0,0,0,103.15,29ZM18.28,18.66l1.39-4.86a4.33,4.33,0,0,1,3.81-2.15c2,0,3.07,1.13,3.2,3.3l-.13,2.83L22.46,41.26H37l3.84-22.6,1.4-4.86A4.11,4.11,0,0,1,46,11.65c2,0,3.06,1.13,3.16,3.3l-.23,2.83L45.06,41.26H60l4.35-25.8.24-3.94c-.24-7.29-4-11-11-11C48.26.52,44.17,3,41.25,7.81,39.72,3,36.52.52,31.65.52a14.34,14.34,0,0,0-8.92,3.07L19.16,7.81l.89-6H6.77L0,41.26H14.57Z"/></g></g></svg>