<svg width="212" height="62" viewBox="0 0 212 62" xmlns="http://www.w3.org/2000/svg">
    <path d="M54.403.976 38.757 44.065a2.998 2.998 0 0 1-2.517 1.958v.025h16.537a3 3 0 0 0 2.823-1.984L71.246.976H54.403zM34.897 45.389a2.835 2.835 0 0 0 2.311-1.197c.155-.216.281-.451.374-.7l5.74-15.814-3.359-9.231a2.839 2.839 0 0 0-4.93-.55c-.053.077-.277.414-.372.702l-5.737 15.805 3.37 9.268a2.83 2.83 0 0 0 2.603 1.715v.002zM19.405 16.042h16.718v.01a2.993 2.993 0 0 0-2.699 1.972L17.78 61.11H.94l15.642-43.09a3.006 3.006 0 0 1 2.823-1.98v.002zM207.138 55.66v-9.28c-1.848.26-2.83.26-3.624.26-1.87 0-3.95-.41-5.565-1.095-3.604-1.5-5.756-5.32-5.756-10.216 0-2.45.597-6.92 4.572-9.328 1.992-1.194 4.352-1.706 7.892-1.706 1.27 0 2.982.099 4.636.197l2.686.136V53.51l-4.84 2.15zm-2.836-27.63c-4.802 0-7.24 2.455-7.24 7.299 0 6.229 3.638 7.537 6.691 7.537.741 0 1.58 0 3.43-.235V28.164c-1.449-.098-2.115-.134-2.88-.134zm-91.877 18.45c-4.9 0-9.435-.861-9.435-7.127 0-6.82 7.015-6.82 11.204-6.82.418 0 2.387.09 2.994.117-.006-3.825-.057-4.738-5.59-4.738-2.195 0-4.63.437-6.784.823l-.408.074v-3.78l.28-.06a36.296 36.296 0 0 1 7.343-.756c5.364 0 9.91.54 9.91 7.212v14.544l-.327.037c-3.715.417-6.666.473-9.187.473zm1.65-10.575c-4.04 0-6.545.596-6.545 3.562 0 3.433 3.196 3.72 6.19 3.72 1.122 0 3.135-.144 3.748-.19v-6.975c-.865-.034-3.12-.117-3.394-.117zM178.79 46.48c-4.9 0-9.433-.861-9.433-7.127 0-6.82 7.011-6.82 11.202-6.82.42 0 2.386.09 2.993.117-.003-3.825-.057-4.738-5.588-4.738-2.196 0-4.633.437-6.783.823l-.41.074v-3.78l.28-.06a36.298 36.298 0 0 1 7.343-.756c5.364 0 9.908.54 9.908 7.212v14.544l-.326.037c-3.714.417-6.665.473-9.187.473h.001zm1.65-10.575c-4.042 0-6.543.596-6.543 3.562 0 3.433 3.195 3.72 6.191 3.72 1.122 0 3.134-.144 3.748-.19v-6.975a281.02 281.02 0 0 0-3.396-.117zM133.46 46.48c-2.152 0-4.396-.24-7.067-.757l-.285-.055v-3.953l.423.09c2.352.504 4.386.939 6.416.939 1.644 0 5.474-.263 5.474-2.686 0-2.036-2.647-2.545-4.772-2.951l-.135-.024c-.39-.081-.765-.155-1.085-.235-3.115-.812-6.439-2.026-6.439-6.213 0-4.08 3.226-6.422 8.846-6.422 2.695 0 4.652.292 6.225.526l.77.117v3.83l-.409-.07c-1.784-.33-3.868-.668-5.879-.668-2.227 0-4.882.419-4.882 2.412 0 1.649 2.17 2.123 4.68 2.67 3.507.766 7.864 1.717 7.864 6.516 0 4.407-3.552 6.934-9.746 6.934zm-40.693-.433-12.78-22.356v22.356h-4.452V17.75h6.228l12.781 22.156-.007-22.156h4.508v28.298h-6.278zm64.78.68c-7.252 0-11.756-4.211-11.756-10.993 0-7.048 4.158-11.428 10.847-11.428l.57-.004c.837 0 1.991.026 3.57.229v-8.505h4.732v29.937s-4.493.764-7.963.764zm-.04-18.684c-4.583 0-6.809 2.477-6.809 7.574 0 4.577 2.684 7.417 7.006 7.417.83 0 1.777-.053 3.074-.166V28.344c-1.297-.206-2.336-.303-3.272-.303v.003z" fill="#AAA" fill-rule="evenodd"/>
</svg>
