<?xml version="1.0" encoding="utf-8"?>
<!-- Generator: Adobe Illustrator 24.3.0, SVG Export Plug-In . SVG Version: 6.00 Build 0)  -->
<svg version="1.1" id="Layer_1" xmlns="http://www.w3.org/2000/svg" xmlns:xlink="http://www.w3.org/1999/xlink" x="0px" y="0px"
	fill="#AAA" viewBox="0 0 466 130" style="enable-background:new 0 0 466 130;" xml:space="preserve">
<path d="M189.7,121.4h3.5c4.8-0.2,6.5-2.2,6.5-7.2v-54c0-6.3-1.5-8.3-6.5-8.6h-2.7v-2.2h36.3v8c6.1-8,11.4-10.8,20.7-10.8
	c14.8,0,23.7,8.1,23.7,21.9v45.5c0,5.8,0.6,7,4.5,7.3h4.5v2.2h-43.5v-2.2h2.8c2.3-0.2,3.7-2.3,3.7-5.8v-52c0-7.5-2-11-6-11
	c-5.5,0-9.8,5.5-9.8,12.6v51c0,4,0.6,5,3,5.1h3.1v2.2h-44V121.4z"/>
<path d="M352.5,81.7c1.4,11.9-2.5,22.4-11.7,32c-6.7,7.2-14.4,11.3-22.4,12.2c-19.3,2.3-40.8-14.2-43.1-33
	c-2.8-23.1,12.7-43.5,34.9-46.2C330.5,44.4,349.9,60.4,352.5,81.7z M322.7,85.6l-1.9-16.2c-0.9-7.7-3-15.2-5.2-18
	c-1.2-1.9-4-3-6.2-2.8c-3,0.4-6,3.2-6.7,6.5c-1.2,5-0.9,8.8,2.2,35c3.2,26.9,6.3,34.7,13.2,33.9c2.6-0.3,5.3-2.3,6-4.4
	c1.4-3.3,1.3-11.4,0-22.6L322.7,85.6z"/>
<path d="M340.2,49.5h42.5v2.2h-0.8c-2,0-3,0.8-3,2.5c0,0.7,0.2,1.5,0.5,2.5l11.1,41.2l7.3-27.7l-4.3-15.6c-0.5-1.5-2.8-2.8-5-2.8
	h-1.7v-2.2h41.3v2.2h-1h-0.8c-2.8,0-3.5,0.3-3.5,1.8c0,0.7,0.2,1.8,0.5,3.2l10.9,41.2l7-24.1c1-3.3,1.5-6.6,1.5-10.1
	c0-4.5-1-8.1-2.8-10.5c-1.2-1.3-1.5-1.5-4.6-1.5h-3.8v-2.2h30v2.2H458c-5.1-0.5-9.1,5.3-14.6,22.1l-15.3,51.2h-14.8l-14.6-51.2
	l-13.9,51.2h-14.6l-18.4-65.5c-2-6.3-3.5-7.8-8-7.8h-3.7V49.5z"/>
<path d="M4.1,121.5h3.4c4.7-0.2,6.3-2.1,6.3-7V61.5c0-6.2-1.5-8.2-6.3-8.5H5v-2.1h35.6v7.8c6-7.8,11.2-10.6,20.3-10.6
	c14.5,0,23.3,8,23.3,21.5v44.6c0,5.7,0.6,6.8,4.4,7.2h4.4v2.1H50.3v-2.1h2.8c2.3-0.2,3.6-2.3,3.6-5.7v-51c0-7.3-1.9-10.8-5.8-10.8
	c-5.4,0-9.6,5.4-9.6,12.4v50c0,3.9,0.6,4.9,2.9,5.1h3.1v2.1H4.1V121.5z"/>
<path d="M83.7,121.5H89c4.1,0,5.5-1.3,5.7-5.1V53.2h-7.8v-2.3h7.8V40.8c0-9.6,3.6-16,11.4-20c8.1-4.1,18.7-6.5,28.8-6.5
	c13.5,0,22.9,6.7,22.9,16.5c0,8.5-6.2,15-14.5,15c-8,0-14.3-6-14.3-13.8c0-3.4,1.3-7,3.6-9.5c1.9-2.3,4.9-3.6,10.7-4.4
	c-3.7-0.8-5.5-1.2-7.5-1.2c-8.1,0-12.4,4.2-12.4,12.5v21.5h15v2.3h-15V114c0,3.9,1.9,7.3,4.4,7.5h9.1v2.1H83.7V121.5z"/>
<path d="M179.2,99.8c0,17.9-7.3,26.7-22.3,26.7c-6.3,0-12-2-15-5.1c-2.6-2.9-3.9-8-3.9-15.3V53l-7.8-0.1l0-2c0.2,0,0.8,0.1,1.2,0.1
	c0.5,0,0.9,0.1,1,0.1c9.6,0.1,20.2-4.9,26.8-12.7c3.4-4.1,4.7-7.5,5-14.2h1.6v26.7h12.2v2.1H166v57.8c0,5.9,1.2,8.8,3.6,8.8
	c1.2,0,3.6-2,4.7-3.9c2.4-4.2,3.1-7.8,3.1-19.2h1.8V99.8z"/>
<path d="M130.7,50.9c0,0.1,2.4-0.1,2.5-0.1c0.6,0,1.2-0.1,1.8-0.1c1.9-0.2,3.9-0.6,5.8-1c5-1.2,9.9-3.3,13.9-6.6
	c0,0,0.1-0.1,0.1-0.1l-0.1,8.2v1.7l-24.1,0.3C130.7,53.2,130.7,50.9,130.7,50.9z"/>
<path d="M57.9,35.6c-3,5.3-6.3,7.9-9.7,7.9c-3.4,0-6.9-2.6-9.3-6.9L23.2,8.1l1.2-0.8l24.4,21.8L72.3,6.4l1.4,0.4L57.9,35.6z"/>
</svg>
