<svg width="354" height="37" viewBox="0 0 354 37" xmlns="http://www.w3.org/2000/svg">
    <g fill="none" fill-rule="evenodd">
        <g fill-rule="nonzero">
            <path fill="#FEFEFE" d="M0 36.963h47.893V0H0z"/>
            <path fill="#AAA" d="M4.132 32.825h17.74V4.135H4.131zM26.021 32.825h17.743V4.135H26.02z"/>
        </g>
        <g fill="#AAA">
            <path d="M183.328 26.396h-7.184v-.326l.695-.089c.452-.053.67-.146.67-.735V16.35c0-.861-.476-1.453-1.365-1.453-1.128 0-2.058.885-2.058 1.85v8.37c0 .732.218.798.71.865l.657.086v.327h-7.066v-.326l.642-.11c.348-.059.607-.08.607-.757v-9.02c0-1.263-.278-1.654-1.526-1.821v-.324l5.895-1.45v2.353c1.082-1.028 2.472-2.333 4.425-2.333 2.423 0 3.529 1.473 3.529 3.432v9.163c0 .663.263.715.734.78l.635.086v.327zM166.694 9.39c0 1.27-1.017 2.279-2.398 2.279-1.385 0-2.378-1.01-2.378-2.28 0-1.272.993-2.293 2.378-2.293 1.381 0 2.398 1.02 2.398 2.294m1.236 17.005h-7.162v-.326c.217-.038.435-.067.654-.089.474-.063.709-.131.709-.757v-9.018c0-1.265-.29-1.677-1.513-1.844v-.324l5.968-1.45v12.454c0 .808.192.876.838.969l.506.06v.325zm-7.655 0h-7.178v-.326l.737-.089c.437-.044.63-.236.63-.757v-8.805c0-1.055-.525-1.521-1.39-1.521-1.057 0-2.028.885-2.028 1.785v8.477c0 .72.23.758.734.823l.623.086v.327h-7.178v-.326l.814-.11c.373-.044.545-.248.545-.61V9.903c0-1.558-.465-1.708-1.516-1.88v-.313l5.978-1.448v8.678c.894-1.134 2.66-2.354 4.36-2.354 1.934 0 3.513 1.116 3.513 3.428v9.166c0 .719.239.72.777.802l.578.086v.327h.001zm-15.602-3.102c-.927 1.444-2.963 3.61-6.638 3.61-6.345 0-9.73-3.723-9.73-9.5 0-7.08 4.667-10.026 9.708-10.026 2.566 0 3.901.837 4.877.837.296 0 .766-.088 1.135-.168l.059 4.579h-.59L141.71 9.37c-.749-.568-1.763-.944-3.448-.944-3.134 0-4.938 3.53-4.938 8.236 0 5.387 2.502 8.307 5.648 8.307 3.43 0 4.595-1.403 5.32-2.183l.381.508zm-20.356 3.102h-7.19v-.326l.737-.089c.426-.044.637-.236.637-.757v-8.805c0-1.055-.542-1.521-1.399-1.521-1.04 0-2.033.885-2.033 1.785v8.477c0 .72.236.758.738.823l.628.086v.327h-7.189v-.326l.828-.11c.37-.044.538-.248.538-.61V9.903c0-1.558-.459-1.708-1.51-1.88v-.313l5.965-1.448v8.678c.906-1.134 2.667-2.354 4.368-2.354 1.937 0 3.503 1.116 3.503 3.428v9.166c0 .719.26.72.791.802l.587.086v.327h.001z"/>
            <path d="M110.042 24.164c-.73 1.271-2.33 2.535-4.869 2.535-2.434 0-3.571-1.651-3.571-3.324v-9.208h-1.638v-.319l5.798-4.648h.336v3.873h3.345l-.388 1.095h-2.957v8.82c0 1.188.63 1.673 1.474 1.673.774 0 1.66-.513 2.25-.99l.22.493zm-9.766 1.86-5.757.527v-2.193c-.933 1.077-2.685 2.362-4.46 2.362-2.294 0-3.475-1.496-3.475-3.448v-7.174c0-1.257-.424-1.616-1.512-1.735v-.324l5.964-1.449v10.03c0 1.029.398 1.618 1.391 1.618.655 0 .899-.102 1.386-.417.565-.378.621-.684.621-1.374v-6.349c0-1.257-.414-1.569-1.508-1.735v-.324l5.968-1.449v12.04c0 .922.716.996 1.382 1.084v.31zm-29.387-5.633c0 3.878-3.17 6.351-7.518 6.351-2.31 0-4.44-.63-5.618-1.48V21h.525l1.607 3.552c.962.621 1.975 1.16 3.634 1.16 2.301 0 3.552-1.495 3.552-3.226 0-1.551-1.171-2.768-4.011-3.647-3.542-1.103-5.509-2.695-5.509-5.726-.001-3.278 3.298-5.717 6.952-5.717 2.286 0 3.946.969 4.415.969.202 0 .543-.044.73-.065v4.225h-.5L67.382 9.36c-.55-.578-1.995-.83-3.048-.83-1.93 0-3.38 1.084-3.38 2.691 0 1.587 1.044 2.337 4.345 3.427 3.822 1.26 5.591 2.72 5.591 5.742m120.02 2.476v-4.634c-1.26 1.489-3.252 1.587-3.252 4.637 0 1.132.53 1.894 1.475 1.894.964 0 1.776-1.077 1.776-1.894l.002-.003zm6.649 2.017c-.315.619-1.644 1.837-3.597 1.837s-2.65-1.046-2.88-2.251c-.777 1.205-1.814 2.25-4.119 2.25-2.326 0-3.634-1.37-3.634-3.311 0-2.06 1.188-3.135 4.268-4.323 2.002-.771 3.37-1.057 3.37-3.22 0-1.827-.725-2.46-1.649-2.46-1.22 0-1.97.778-2.093.973.222.122 1.04.484 1.04 1.637 0 1.193-1.01 1.897-2.136 1.897-1.242 0-1.825-.951-1.825-2.048 0-1.85 2.513-3.275 6.278-3.275 3.185 0 4.79 1.515 4.79 4.134v7.007c0 1.064.12 1.494.816 1.494.375 0 .779-.255 1.137-.613l.234.272zM80.586 19.697c0-4.777-.451-6.414-2.088-6.414-1.698 0-2.105 1.613-2.105 6.371 0 4.457.407 6.37 2.105 6.37 1.637 0 2.09-1.894 2.09-6.327m4.565 0c0 4.149-2.97 7.024-6.655 7.024-3.717 0-6.687-2.889-6.687-7.067 0-4.147 3-7.065 6.687-7.065 3.685 0 6.655 2.924 6.655 7.108m267.392 4.437c-.733 1.261-2.318 2.586-4.855 2.586-2.439 0-3.574-1.653-3.574-3.32v-9.207h-1.643v-.325l5.811-4.633h.326v3.859h3.344l-.383 1.098h-2.96v8.83c0 1.176.64 1.654 1.476 1.654.787 0 1.446-.487 2.106-.97l.352.428zm-10.103-2.208c0 2.957-2.625 4.773-5.88 4.773-2.881 0-4.06-.759-4.619-1.034v-3.51h.324l1.54 2.941c.624.43 1.824.822 2.785.822 1.561 0 2.65-.758 2.65-2.087 0-1.412-1.75-1.89-3.585-2.516-2.043-.688-3.848-1.8-3.848-4.168 0-2.87 2.548-4.539 5.427-4.539 2.45 0 3.5.909 4.156.743v3.38h-.298l-1.576-2.58a4.006 4.006 0 0 0-2.27-.745c-1.83 0-2.687.626-2.687 1.752 0 1.237 1.723 1.729 3.592 2.395 2.361.839 4.29 1.727 4.29 4.373m-57.49 4.489h-7.169v-.327l.685-.078c.447-.06.674-.16.674-.735v-8.897c0-.87-.486-1.559-1.359-1.559-1.15 0-2.066.995-2.066 1.954v8.368c0 .719.22.799.706.869l.653.078v.327h-7.057v-.327l.634-.107c.358-.062.606-.07.606-.757v-9.018c0-1.265-.275-1.66-1.505-1.828v-.317l5.876-1.453v2.36c1.095-1.035 2.477-2.335 4.422-2.335 2.433 0 3.537 1.471 3.537 3.42v9.17c0 .662.26.717.743.787l.622.078v.327h-.002zM268.342 9.419c0 1.26-1.016 2.266-2.4 2.266-1.382 0-2.37-1.007-2.37-2.266 0-1.267.988-2.29 2.368-2.29 1.386 0 2.402 1.023 2.402 2.29m1.27 16.996h-7.158v-.327c.23-.039.652-.078.652-.078.478-.066.72-.13.72-.764v-9.013c0-1.269-.296-1.688-1.517-1.855v-.317l5.974-1.453v12.45c0 .823.174.886.828.966l.502.064v.327h-.001zm-7.526 0h-7.19v-.327l.685-.078c.45-.06.684-.16.684-.735v-8.897c0-.87-.487-1.454-1.369-1.454-1.138 0-2.07.89-2.07 1.85v8.367c0 .719.223.799.723.869l.654.078v.327h-7.06v-.327l.636-.107c.347-.062.6-.07.6-.757v-9.018c0-1.265-.291-1.706-1.515-1.844v-.302l5.886-1.453v2.36c1.095-1.036 2.475-2.335 4.427-2.335 2.414 0 3.53 1.47 3.53 3.42v9.17c0 .662.258.716.742.786l.637.078v.329z"/>
            <path d="M247.052 14.547c0 1.236-.74 2.08-2.034 2.08-.913 0-1.596-.6-1.596-1.405 0-.274.084-.569.245-.86-.66 0-2.15 1.071-2.15 2.136v8.662c0 .675.248.817.79.864l.724.064v.327h-7.347v-.327l.617-.078c.609-.092.757-.16.757-.893v-9.02c0-1.257-.449-1.57-1.522-1.719v-.317l5.89-1.453v2.189c.967-1.308 2.339-2.189 3.578-2.189 1.253 0 2.048.758 2.048 1.939m-24.306 11.868h-8.831v-.327l1.033-.127c.79-.095.974-.222.974-1.051v-.358l-.317-12.822h-.081l-5.38 14.837h-.859l-5.202-14.752h-.068L203.84 23.4c0 .274-.02.521-.02.748 0 1.564.419 1.771 1.657 1.938v.329h-4.75v-.327c1.244-.237 1.864-.795 1.913-2.674l.367-13.106c0-.18.013-.34.013-.496 0-.784-.233-1.483-1.253-1.597 0 0-.51-.054-.824-.08v-.34h6.593l3.952 11.815h.07l4.285-11.815h5.791v.34c-1.015.08-1.552.36-1.552 1.102 0 .195.03.84.03 1.087l.51 14.52c.03.76.338 1.02 1.095 1.117l1.029.127v.327zM326.21 19.72c0-4.78-.454-6.406-2.091-6.406-1.698 0-2.102 1.613-2.102 6.357 0 4.463.404 6.374 2.102 6.374 1.637 0 2.091-1.897 2.091-6.325m4.569 0c0 4.138-2.98 7.022-6.66 7.022-3.709 0-6.68-2.896-6.68-7.071 0-4.144 2.993-7.063 6.68-7.063 3.68 0 6.66 2.93 6.66 7.112m-17.144-6.874c0-3.068-1.093-4.292-3.22-4.292-.516 0-.921.067-1.241.14v8.674c.209.018.388.075 1.166.075 2.202 0 3.295-1.203 3.295-4.597m4.81.06c0 3.404-3.231 5.298-7.474 5.298-.63 0-.95.01-1.797-.047v6.774c0 .593.256.919 1.375 1.03l.8.084v.37h-8.767v-.37l1.09-.127c.696-.079.936-.274.936-.907V9.642c0-1.088-.611-1.34-2.027-1.51v-.335h7.607c5.359 0 8.258 1.225 8.258 5.109m-23.38 16.818c0-.987-.806-1.284-2.965-1.722l-3.657-.743c-.598.503-1.242.932-1.242 2.31 0 1.366 1.475 2.217 3.827 2.217 2.583 0 4.036-1.055 4.036-2.062zm-2.34-12.254c0-3.06-.476-4.156-1.612-4.156-1.223 0-1.593 1.095-1.593 4.154 0 3.02.37 4.03 1.591 4.03 1.138 0 1.615-1.01 1.615-4.03v.002zm6.119-4.519-.824 1.668-2.244-.118c.724.687 1.298 1.554 1.298 2.967 0 2.875-2.673 4.84-5.963 4.84a10.215 10.215 0 0 1-2.264-.259c-.128.21-.201.448-.215.693 0 .334.64.574 1.388.717l3.844.732c3.411.67 4.81 1.588 4.81 3.748 0 2.84-3.715 4.602-7.69 4.602-3.677 0-6.867-.654-6.867-2.688 0-1.723 1.86-2.396 3.404-2.836-1.233-.503-1.658-1.558-1.658-2.311 0-1.423 1.1-2.172 2.205-2.975-1.842-.774-2.908-2.305-2.908-4.263 0-2.847 2.685-4.92 5.951-4.92 1.304 0 2.097.29 2.673.547l5.06-.144z"/>
            <path d="M230.84 19.72c0-4.78-.459-6.406-2.103-6.406-1.696 0-2.097 1.613-2.097 6.357 0 4.463.4 6.374 2.097 6.374 1.644 0 2.103-1.897 2.103-6.325m4.557 0c0 4.138-2.976 7.022-6.66 7.022-3.706 0-6.68-2.896-6.68-7.071 0-4.144 2.995-7.063 6.68-7.063 3.684 0 6.66 2.93 6.66 7.112"/>
        </g>
    </g>
</svg>
